<?xml version="1.0" standalone="no"?>
<svg xmlns="http://www.w3.org/2000/svg" viewBox="0 0 100 57" width="100" height="57"><g fill="#489bfa" color="#489bfa" transform="translate(32.03 0) scale(0.7) "><svg width="50.0" height="31.0" x="0.0" y="0.0" viewBox="0 0 50 31"><path fill="currentColor" fill-rule="nonzero" d="M21.56 25.82v-.26-.16c0-1.91 1.54-3.44 3.44-3.44s3.44 1.54 3.44 3.44V25.82c0 2.86 5.35 4.34 10.59 4.34s10.59-1.48 10.59-4.34v-.69C49.51 11.69 38.5.73 25 .73 11.45.73.44 11.74.39 25.24v.53c0 2.86 5.35 4.34 10.59 4.34s10.58-1.43 10.58-4.29zm3.44-5.5c-2.17 0-4.02 1.38-4.71 3.33-.74-.58-1.8-1.01-3.02-1.38 1.22-3.18 4.34-5.24 7.73-5.24 3.39 0 6.46 2.12 7.73 5.24-1.22.37-2.28.79-3.02 1.38A4.991 4.991 0 0 0 25 20.32zm-12.65 1.22c1.69-5.56 6.78-9.42 12.65-9.42 4.82 0 9.16 2.65 11.49 6.67 0 .05.05.05.05.11.16.26.26.53.42.79.05.11.11.21.16.32.11.21.16.42.26.64.05.16.11.32.16.48.05.16.11.26.16.42-1.16.05-2.28.21-3.33.37-1.48-3.86-5.24-6.46-9.37-6.46-4.08 0-7.83 2.59-9.32 6.4v.05c-1.05-.21-2.17-.32-3.33-.37zm-5.14.21C8.9 13.28 16.26 7.25 25 7.25c8.68 0 16.04 6.03 17.79 14.5a24.32 24.32 0 0 0-3.44-.26v-.05c-.05-.11-.05-.21-.11-.32v-.11c-.05-.11-.11-.26-.16-.37-.05-.16-.11-.37-.21-.53-.11-.21-.16-.48-.26-.69-.05-.11-.11-.26-.16-.37-.16-.32-.26-.58-.42-.85 0-.05-.05-.11-.05-.11a14.724 14.724 0 0 0-12.86-7.46c-6.72 0-12.54 4.5-14.29 10.96-1.29-.11-2.5 0-3.62.16zm31.82 6.83c-5.5 0-9-1.64-9-2.75s3.49-2.75 9-2.75 9 1.64 9 2.75-3.5 2.75-9 2.75zM25 2.32c12.02 0 21.91 9.26 22.92 21.01-.9-.58-2.12-1.01-3.49-1.32C42.79 12.49 34.69 5.6 25 5.6S7.16 12.49 5.57 22.01c-1.38.32-2.59.74-3.49 1.32C3.09 11.59 12.98 2.32 25 2.32zM1.97 25.82c0-1.11 3.49-2.75 9-2.75s9 1.64 9 2.75-3.49 2.75-9 2.75-9-1.63-9-2.75z"></path></svg></g><line x1="33.079296875" y1="27.7" x2="65.97929687499999" y2="27.7" stroke="#f784a2" stroke-linecap="round"></line><path fill="#f784a2" fill-rule="nonzero" d="M3.39 4.49L3.39 4.49Q4.17 4.49 5.00 4.69Q5.84 4.90 6.53 5.22Q7.22 5.54 7.66 5.94Q8.11 6.34 8.11 6.71L8.11 6.71Q8.11 6.90 7.95 7.13Q7.78 7.36 7.55 7.56Q7.31 7.77 7.04 7.90Q6.76 8.04 6.55 8.04L6.55 8.04Q6.27 8.04 5.92 7.80Q5.58 7.57 5.16 7.28Q4.75 7.00 4.25 6.76Q3.76 6.53 3.19 6.53L3.19 6.53Q2.81 6.53 2.57 6.71Q2.33 6.89 2.33 7.22L2.33 7.22Q2.33 7.51 2.61 7.81Q2.89 8.11 3.36 8.43Q3.82 8.74 4.41 9.09Q4.99 9.45 5.61 9.84Q6.22 10.24 6.81 10.71Q7.39 11.18 7.86 11.73Q8.32 12.28 8.60 12.93Q8.88 13.58 8.88 14.34L8.88 14.34Q8.88 15 8.65 15.54Q8.41 16.08 7.98 16.46Q7.55 16.85 6.95 17.06Q6.35 17.27 5.64 17.27L5.64 17.27Q4.73 17.27 3.97 17.00Q3.21 16.72 2.66 16.24Q2.11 15.76 1.80 15.09Q1.49 14.43 1.49 13.63L1.49 13.63Q1.49 12.60 1.86 12.13Q2.23 11.66 3.02 11.66L3.02 11.66Q3.52 11.66 3.81 11.85Q4.10 12.04 4.10 12.30L4.10 12.30Q4.10 12.45 4.05 12.59Q4.01 12.74 3.96 12.90Q3.90 13.05 3.86 13.23Q3.82 13.41 3.82 13.58L3.82 13.58Q3.82 13.89 3.96 14.17Q4.10 14.45 4.34 14.67Q4.58 14.88 4.90 15.01Q5.21 15.14 5.57 15.14L5.57 15.14Q6.50 15.14 6.50 14.37L6.50 14.37Q6.50 13.76 6.02 13.21Q5.54 12.67 4.82 12.15Q4.09 11.63 3.25 11.10Q2.41 10.57 1.69 10.00Q0.96 9.42 0.48 8.77Q0 8.12 0 7.36L0 7.36Q0 6.73 0.26 6.20Q0.53 5.67 0.98 5.29Q1.44 4.91 2.06 4.70Q2.67 4.49 3.39 4.49ZM10.39 1.13L10.39 1.13Q10.39 0.50 10.75 0.25Q11.10 0 11.91 0L11.91 0Q12.20 0 12.40 0.05Q12.61 0.11 12.76 0.25Q12.90 0.39 12.99 0.62Q13.08 0.84 13.14 1.20L13.14 1.20Q13.28 2.29 13.45 3.45Q13.62 4.61 13.80 5.78L13.80 5.78Q13.88 6.30 14.36 6.30L14.36 6.30Q14.48 6.30 14.78 6.28Q15.08 6.25 15.49 6.21Q15.90 6.16 16.38 6.12Q16.85 6.07 17.33 6.03Q17.80 5.99 18.23 5.96Q18.66 5.93 18.98 5.93L18.98 5.93Q19.24 5.93 19.39 6.03Q19.55 6.13 19.63 6.29Q19.72 6.45 19.75 6.64Q19.78 6.83 19.78 7.03L19.78 7.03Q19.78 7.21 19.72 7.39Q19.65 7.58 19.54 7.73Q19.43 7.88 19.27 7.97Q19.10 8.06 18.89 8.06L18.89 8.06Q17.87 8.06 16.83 8.13Q15.80 8.19 14.77 8.30L14.77 8.30Q14.24 8.37 14.24 8.82L14.24 8.82Q14.24 8.86 14.25 8.91Q14.26 8.96 14.26 9L14.26 9Q14.40 10.02 14.53 10.91Q14.65 11.80 14.74 12.50Q14.82 13.20 14.88 13.66Q14.93 14.12 14.93 14.27L14.93 14.27Q14.93 14.70 14.85 14.98Q14.77 15.27 14.58 15.45Q14.39 15.63 14.08 15.71Q13.77 15.79 13.30 15.79L13.30 15.79Q12.86 15.79 12.64 15.57Q12.43 15.36 12.41 14.93L12.41 14.93Q12.34 13.55 12.19 12.15Q12.04 10.75 11.84 9.35L11.84 9.35Q11.73 8.85 11.31 8.85L11.31 8.85Q11.27 8.85 11.23 8.86Q11.18 8.87 11.14 8.87L11.14 8.87Q10.42 9.04 9.77 9.20Q9.13 9.36 8.57 9.55L8.57 9.55Q8.25 9.66 8.00 9.70Q7.76 9.74 7.56 9.74L7.56 9.74Q7.29 9.74 7.16 9.50Q7.03 9.26 7.03 8.89L7.03 8.89Q7.03 8.77 7.05 8.60Q7.08 8.43 7.14 8.26Q7.21 8.09 7.33 7.94Q7.45 7.79 7.66 7.70L7.66 7.70Q8.16 7.50 8.98 7.28Q9.80 7.07 10.83 6.88L10.83 6.88Q11.06 6.82 11.20 6.69Q11.33 6.55 11.33 6.28L11.33 6.28Q11.33 6.22 11.33 6.16Q11.33 6.09 11.31 6.02L11.31 6.02Q11.12 4.95 10.95 4.06Q10.78 3.18 10.66 2.54Q10.54 1.91 10.46 1.55Q10.39 1.18 10.39 1.13ZM21.56 10.51L21.56 10.51Q21.56 12.08 22.04 12.94Q22.52 13.79 23.44 13.79L23.44 13.79Q24.01 13.79 24.50 13.45Q24.98 13.11 25.34 12.50Q25.69 11.89 25.88 11.06Q26.07 10.22 26.07 9.23L26.07 9.23Q26.07 8.64 26.03 8.20Q25.98 7.76 25.93 7.41Q25.88 7.07 25.83 6.80Q25.78 6.53 25.78 6.28L25.78 6.28Q25.78 5.91 26.10 5.74Q26.41 5.57 27.11 5.57L27.11 5.57Q27.98 5.57 28.47 5.96Q28.96 6.36 28.96 7.13L28.96 7.13Q28.96 9.20 28.55 10.85Q28.15 12.50 27.39 13.66Q26.64 14.81 25.56 15.43Q24.48 16.05 23.14 16.05L23.14 16.05Q22.20 16.05 21.39 15.66Q20.59 15.27 20.01 14.56Q19.43 13.85 19.10 12.87Q18.77 11.89 18.77 10.72L18.77 10.72Q18.77 10.28 18.80 9.77Q18.82 9.27 18.87 8.69Q18.91 8.11 18.99 7.43Q19.07 6.75 19.16 5.95L19.16 5.95Q19.20 5.61 19.48 5.41Q19.77 5.20 20.21 5.20L20.21 5.20Q20.61 5.20 20.96 5.29Q21.32 5.37 21.57 5.51Q21.82 5.65 21.97 5.84Q22.11 6.02 22.11 6.23L22.11 6.23Q22.11 6.45 22.03 6.90Q21.94 7.35 21.84 7.93Q21.74 8.51 21.65 9.18Q21.56 9.86 21.56 10.51ZM38.20 6.09L38.20 6.09Q38.25 6.12 38.34 6.12L38.34 6.12Q38.60 6.12 38.60 5.78L38.60 5.78L38.60 2.13Q38.60 1.44 38.91 1.15Q39.22 0.86 39.95 0.86L39.95 0.86Q40.69 0.86 40.99 1.16Q41.30 1.46 41.30 2.20L41.30 2.20Q41.30 2.48 41.26 3.03Q41.23 3.57 41.19 4.27Q41.14 4.96 41.11 5.75Q41.07 6.54 41.07 7.31L41.07 7.31Q41.07 8.51 41.24 9.38Q41.40 10.24 41.71 10.81Q42.01 11.38 42.43 11.65Q42.86 11.93 43.38 11.93L43.38 11.93Q43.68 11.93 43.92 11.85Q44.16 11.78 44.48 11.78L44.48 11.78Q44.72 11.78 44.88 12.02Q45.04 12.26 45.04 12.60L45.04 12.60Q45.04 12.90 44.85 13.17Q44.67 13.44 44.36 13.64Q44.05 13.84 43.64 13.95Q43.23 14.06 42.79 14.06L42.79 14.06Q41.82 14.06 41.03 13.47Q40.23 12.88 39.83 11.66L39.83 11.66Q39.80 11.47 39.71 11.47L39.71 11.47Q39.62 11.47 39.56 11.66L39.56 11.66Q39.25 12.52 38.74 13.20Q38.23 13.89 37.55 14.37Q36.88 14.86 36.08 15.12Q35.27 15.38 34.38 15.38L34.38 15.38Q33.45 15.38 32.67 15.06Q31.89 14.75 31.32 14.20Q30.76 13.64 30.45 12.88Q30.13 12.13 30.13 11.25L30.13 11.25Q30.13 10.13 30.60 9.13Q31.07 8.13 31.87 7.39Q32.67 6.64 33.74 6.21Q34.80 5.78 36.01 5.78L36.01 5.78Q36.50 5.78 37.05 5.85Q37.61 5.93 38.20 6.09ZM34.84 13.27L34.84 13.27Q35.51 13.27 36.03 12.97Q36.55 12.68 36.96 12.23Q37.36 11.78 37.64 11.23Q37.92 10.69 38.10 10.17Q38.27 9.66 38.36 9.25Q38.44 8.84 38.44 8.66L38.44 8.66Q38.44 8.53 38.37 8.43Q38.30 8.33 38.16 8.27L38.16 8.27Q37.84 8.19 37.50 8.13Q37.16 8.06 36.83 8.02Q36.50 7.97 36.21 7.95Q35.91 7.92 35.66 7.92L35.66 7.92Q34.96 7.92 34.38 8.13Q33.81 8.34 33.40 8.73Q33 9.12 32.78 9.65Q32.55 10.18 32.55 10.82L32.55 10.82Q32.55 11.38 32.72 11.83Q32.89 12.28 33.19 12.60Q33.49 12.91 33.91 13.09Q34.34 13.27 34.84 13.27ZM49.31 14.98L49.31 14.98Q48.61 14.98 47.91 14.63Q47.20 14.29 46.56 13.69Q45.91 13.09 45.36 12.28Q44.81 11.46 44.40 10.52Q43.99 9.57 43.76 8.54Q43.52 7.51 43.52 6.48L43.52 6.48Q43.52 5.68 43.85 5.34Q44.18 4.99 44.92 4.99L44.92 4.99Q45.84 4.99 45.95 5.75L45.95 5.75Q46.16 7.37 46.54 8.67Q46.91 9.97 47.42 10.89Q47.93 11.80 48.56 12.29Q49.18 12.79 49.89 12.79L49.89 12.79Q50.39 12.79 50.84 12.53Q51.28 12.28 51.61 11.82L51.61 11.82Q51.73 11.65 51.77 11.48Q51.81 11.32 51.83 11.11L51.83 11.11Q51.89 10.28 51.97 9.47Q52.04 8.67 52.11 7.86L52.11 7.86Q52.14 7.51 52.21 7.29Q52.28 7.07 52.42 6.94Q52.56 6.81 52.79 6.76Q53.02 6.71 53.37 6.71L53.37 6.71Q53.77 6.71 54.05 6.83Q54.33 6.94 54.50 7.19Q54.68 7.44 54.76 7.85Q54.83 8.25 54.83 8.85L54.83 8.85Q54.83 9.36 54.76 9.74Q54.68 10.13 54.58 10.46Q54.48 10.79 54.39 11.12Q54.30 11.44 54.28 11.82L54.28 11.82Q54.22 12.80 54.18 13.51Q54.13 14.21 54.10 14.72Q54.07 15.22 54.05 15.59Q54.04 15.95 54.02 16.24Q54.01 16.52 54.01 16.78Q54.01 17.04 54.01 17.34L54.01 17.34Q54.01 17.89 54.06 18.54Q54.11 19.20 54.16 19.79Q54.21 20.39 54.26 20.85Q54.30 21.30 54.30 21.48L54.30 21.48Q54.30 21.70 54.16 21.90Q54.02 22.10 53.79 22.25Q53.55 22.41 53.24 22.49Q52.92 22.58 52.57 22.58L52.57 22.58Q52.27 22.58 52.08 22.38Q51.90 22.17 51.88 21.83L51.88 21.83Q51.84 21.39 51.82 20.75Q51.80 20.11 51.77 19.39Q51.75 18.67 51.74 17.92Q51.74 17.18 51.73 16.54Q51.71 15.90 51.71 15.42Q51.71 14.94 51.71 14.73L51.71 14.73Q51.71 14.52 51.67 14.43Q51.62 14.34 51.49 14.34L51.49 14.34Q51.42 14.34 51.30 14.38Q51.19 14.43 51.04 14.52L51.04 14.52Q50.63 14.77 50.20 14.87Q49.78 14.98 49.31 14.98ZM63.74 11.87L63.14 10.05Q63.07 9.83 63.07 9.64L63.07 9.64Q63.07 9.09 63.67 8.80L63.67 8.80Q63.91 8.68 64.08 8.61Q64.24 8.53 64.35 8.49Q64.46 8.45 64.54 8.44Q64.61 8.43 64.68 8.43L64.68 8.43Q64.95 8.43 65.14 8.69Q65.34 8.95 65.50 9.36Q65.66 9.76 65.78 10.22Q65.91 10.69 66.04 11.09Q66.18 11.50 66.33 11.76Q66.49 12.02 66.71 12.02L66.71 12.02Q66.96 12.02 67.20 11.79Q67.44 11.57 67.64 11.21Q67.84 10.86 67.96 10.45Q68.09 10.04 68.09 9.67L68.09 9.67Q68.09 8.47 67.63 7.53Q67.17 6.59 66.45 5.93Q65.72 5.27 64.80 4.93Q63.88 4.58 62.96 4.58L62.96 4.58Q61.88 4.58 61.17 4.84Q60.47 5.10 60.06 5.58Q59.66 6.07 59.50 6.77Q59.34 7.48 59.34 8.37L59.34 8.37Q59.34 9.05 59.60 9.70Q59.86 10.35 60.35 10.90Q60.84 11.45 61.56 11.87Q62.27 12.29 63.19 12.50L63.19 12.50Q63.25 12.53 63.28 12.53Q63.32 12.53 63.38 12.53L63.38 12.53Q63.56 12.53 63.67 12.41Q63.79 12.29 63.79 12.12L63.79 12.12Q63.79 12.06 63.77 12.01Q63.76 11.95 63.74 11.87L63.74 11.87ZM56.92 8.45L56.92 8.45Q56.92 8.32 56.93 8.13Q56.94 7.95 56.94 7.75L56.94 7.75Q56.94 7.56 56.92 7.37Q56.89 7.18 56.83 7.03Q56.77 6.87 56.65 6.76Q56.53 6.64 56.34 6.62L56.34 6.62Q56.13 6.60 56.00 6.45Q55.86 6.30 55.86 6.09L55.86 6.09Q55.86 5.78 56.09 5.47L56.09 5.47Q56.63 4.65 57.39 4.07Q58.16 3.49 59.07 3.13Q59.99 2.77 61.00 2.60Q62.00 2.43 63.02 2.43L63.02 2.43Q63.84 2.43 64.71 2.62Q65.58 2.81 66.40 3.20Q67.23 3.59 67.97 4.15Q68.71 4.71 69.26 5.46Q69.81 6.20 70.13 7.11Q70.45 8.02 70.45 9.09L70.45 9.09Q70.45 10.00 70.24 10.75Q70.03 11.50 69.65 12.11Q69.27 12.71 68.73 13.19Q68.19 13.66 67.54 13.99L67.54 13.99Q67.15 14.16 67.15 14.52L67.15 14.52Q67.15 14.55 67.15 14.60Q67.15 14.64 67.16 14.67L67.16 14.67Q67.16 14.72 67.17 14.75L67.17 14.75Q67.23 15.07 67.33 15.53Q67.43 16.00 67.53 16.49Q67.63 16.99 67.70 17.46Q67.77 17.92 67.77 18.23L67.77 18.23Q67.77 18.96 66.95 19.15L66.95 19.15Q66.70 19.21 66.48 19.24Q66.26 19.27 66.19 19.27L66.19 19.27Q65.47 19.27 65.37 18.43L65.37 18.43Q65.26 17.63 65.10 16.85Q64.95 16.08 64.77 15.30L64.77 15.30Q64.70 15.04 64.58 14.92Q64.45 14.80 64.29 14.80L64.29 14.80L63.95 14.80Q62.39 14.80 61.10 14.29Q59.81 13.78 58.88 12.91Q57.95 12.04 57.43 10.89Q56.92 9.74 56.92 8.45ZM74.82 10.51L74.82 10.51Q74.82 12.08 75.30 12.94Q75.79 13.79 76.70 13.79L76.70 13.79Q77.27 13.79 77.76 13.45Q78.25 13.11 78.60 12.50Q78.95 11.89 79.14 11.06Q79.34 10.22 79.34 9.23L79.34 9.23Q79.34 8.64 79.29 8.20Q79.24 7.76 79.19 7.41Q79.14 7.07 79.09 6.80Q79.04 6.53 79.04 6.28L79.04 6.28Q79.04 5.91 79.36 5.74Q79.68 5.57 80.37 5.57L80.37 5.57Q81.25 5.57 81.73 5.96Q82.22 6.36 82.22 7.13L82.22 7.13Q82.22 9.20 81.81 10.85Q81.41 12.50 80.65 13.66Q79.90 14.81 78.82 15.43Q77.74 16.05 76.41 16.05L76.41 16.05Q75.46 16.05 74.65 15.66Q73.85 15.27 73.27 14.56Q72.69 13.85 72.36 12.87Q72.04 11.89 72.04 10.72L72.04 10.72Q72.04 10.28 72.06 9.77Q72.08 9.27 72.13 8.69Q72.18 8.11 72.25 7.43Q72.33 6.75 72.42 5.95L72.42 5.95Q72.46 5.61 72.74 5.41Q73.03 5.20 73.48 5.20L73.48 5.20Q73.88 5.20 74.23 5.29Q74.58 5.37 74.83 5.51Q75.08 5.65 75.23 5.84Q75.38 6.02 75.38 6.23L75.38 6.23Q75.38 6.45 75.29 6.90Q75.20 7.35 75.10 7.93Q75 8.51 74.91 9.18Q74.82 9.86 74.82 10.51ZM85.38 2.71L85.38 2.71Q85.04 2.71 84.74 2.61Q84.45 2.51 84.23 2.33Q84.01 2.14 83.88 1.90Q83.75 1.65 83.75 1.36L83.75 1.36Q83.75 0.87 84.15 0.56Q84.54 0.26 85.20 0.26L85.20 0.26Q85.50 0.26 85.78 0.37Q86.06 0.48 86.28 0.67Q86.50 0.86 86.63 1.11Q86.75 1.36 86.75 1.63L86.75 1.63Q86.75 2.13 86.38 2.42Q86.02 2.71 85.38 2.71ZM83.78 6.28L83.78 6.28Q83.78 5.87 84.13 5.61Q84.49 5.34 85.08 5.34L85.08 5.34Q86.13 5.34 86.20 6.07L86.20 6.07Q86.25 6.57 86.30 7.21Q86.36 7.84 86.41 8.55Q86.46 9.26 86.50 10.01Q86.54 10.77 86.58 11.50Q86.61 12.23 86.64 12.91Q86.66 13.59 86.66 14.16L86.66 14.16Q86.66 14.74 86.24 15.04Q85.83 15.33 85.03 15.33L85.03 15.33Q84.67 15.33 84.46 15.16Q84.26 14.99 84.26 14.66L84.26 14.66Q84.26 13.04 84.18 11.63Q84.11 10.22 84.02 9.12Q83.93 8.02 83.85 7.28Q83.78 6.55 83.78 6.28ZM93.74 11.75L93.74 11.75Q93.34 11.75 92.97 11.81Q92.60 11.87 92.29 11.94Q91.97 12 91.72 12.06Q91.48 12.12 91.34 12.12L91.34 12.12Q91.21 12.12 91.07 12.01Q90.94 11.89 90.83 11.72Q90.73 11.54 90.66 11.33Q90.59 11.12 90.59 10.92L90.59 10.92Q90.59 10.75 90.84 10.43Q91.09 10.11 91.46 9.71Q91.83 9.32 92.27 8.86Q92.71 8.40 93.08 7.95Q93.45 7.49 93.70 7.06Q93.95 6.63 93.95 6.28L93.95 6.28Q93.95 5.88 93.66 5.69Q93.36 5.50 92.89 5.50L92.89 5.50Q92.25 5.50 91.61 5.65Q90.97 5.80 90.42 5.99Q89.87 6.18 89.43 6.33Q88.99 6.48 88.75 6.48L88.75 6.48Q88.58 6.48 88.44 6.39Q88.29 6.29 88.17 6.13Q88.05 5.98 87.99 5.77Q87.93 5.55 87.93 5.32L87.93 5.32Q87.93 4.91 88.06 4.60Q88.20 4.29 88.43 4.20L88.43 4.20Q88.88 4.03 89.49 3.88Q90.11 3.74 90.77 3.62Q91.44 3.50 92.10 3.44Q92.77 3.38 93.30 3.38L93.30 3.38Q94.76 3.38 95.52 3.96Q96.28 4.54 96.28 5.64L96.28 5.64Q96.28 6.13 96.16 6.56Q96.04 7.00 95.77 7.43Q95.51 7.86 95.11 8.33Q94.71 8.79 94.15 9.33L94.15 9.33Q93.93 9.55 93.93 9.69L93.93 9.69Q93.93 9.89 94.36 9.94L94.36 9.94Q95.50 10.00 96.37 10.34Q97.24 10.68 97.84 11.26Q98.44 11.85 98.75 12.65Q99.06 13.45 99.06 14.45L99.06 14.45Q99.06 15.68 98.61 16.75Q98.16 17.82 97.37 18.62Q96.57 19.41 95.51 19.86Q94.44 20.32 93.21 20.32L93.21 20.32Q92.12 20.32 91.17 19.99Q90.22 19.65 89.53 19.07Q88.83 18.49 88.42 17.71Q88.02 16.93 88.02 16.03L88.02 16.03Q88.02 15.61 88.11 15.18Q88.21 14.75 88.36 14.41Q88.51 14.07 88.70 13.86Q88.89 13.65 89.07 13.65L89.07 13.65Q89.37 13.65 89.64 13.72Q89.92 13.78 90.13 13.89Q90.35 14.00 90.49 14.14Q90.62 14.29 90.62 14.43L90.62 14.43Q90.62 14.54 90.58 14.67Q90.54 14.79 90.50 14.94Q90.46 15.08 90.42 15.25Q90.38 15.41 90.38 15.60L90.38 15.60Q90.38 16.13 90.62 16.60Q90.86 17.07 91.27 17.43Q91.68 17.78 92.23 17.98Q92.78 18.19 93.40 18.19L93.40 18.19Q94.15 18.19 94.76 17.94Q95.38 17.68 95.82 17.22Q96.26 16.76 96.50 16.12Q96.74 15.48 96.74 14.71L96.74 14.71Q96.74 14.07 96.51 13.54Q96.28 13.00 95.88 12.60Q95.48 12.21 94.93 11.98Q94.38 11.75 93.74 11.75Z" transform="translate(0, 33.7)"></path></svg>